<?xml version="1.0" encoding="UTF-8"?>
<svg id="_圖層_2" data-name="圖層 2" xmlns="http://www.w3.org/2000/svg" viewBox="0 0 96.5 76.89">
  <defs>
    <style>
      .cls-1 {
        fill: #fff;
      }
    </style>
  </defs>
  <g id="_圖層_1-2" data-name="圖層 1">
    <g>
      <path class="cls-1" d="m33.86,62.7c-3.25,0-6.2,0-9.15,0-6.17-.01-10.17-3.96-10.2-10.16-.04-6.45-.05-12.9.02-19.34.02-1.55-.46-2.04-1.98-1.93-1.82.13-3.53-.11-5.1,1.5-1.64,1.69-4.7,1.19-6.28-.54-1.6-1.74-1.56-4.83.08-6.54,1.62-1.69,4.69-2.12,6.3-.4,1.8,1.92,3.86,1.33,5.89,1.32.35,0,1-1,1.01-1.55.08-4.71.04-9.41.05-14.12C14.51,3.94,18.41,0,25.38,0c15.28,0,30.56,0,45.85,0,6.82,0,10.78,3.98,10.78,10.82,0,4.51,0,9.03,0,13.54,0,.69,0,1.39,0,2.32,2.53-.27,4.88.74,6.99-1.46,1.59-1.66,4.83-1.16,6.33.48,1.52,1.66,1.58,4.69.12,6.43-1.44,1.71-4.36,2.07-6.36.77-2.81-1.82-2.98-1.86-6.95-1.47-.04.64-.11,1.32-.11,2,0,6.38,0,12.77,0,19.15-.01,6.05-4.03,10.09-10.04,10.11-4.58.01-9.16-.08-13.73.06-1.18.04-2.53.5-3.49,1.2-5.46,4-10.78,8.18-16.25,12.17-.85.62-2.27.91-3.29.7-.59-.13-1.25-1.55-1.28-2.41-.14-3.79-.06-7.59-.06-11.71Zm14.5-48.37c-4.12,0-8.24-.03-12.37,0-2.7.02-5.41.02-8.1.25-2.16.19-3.75,1.84-3.78,3.97-.09,6.95-.09,13.91,0,20.86.03,2.13,1.63,3.65,3.78,4,.89.14,1.79.22,2.69.23,11.79.01,23.57.01,35.36,0,.77,0,1.54-.06,2.31-.17,2.69-.39,4.2-1.91,4.23-4.63.08-6.57.08-13.14,0-19.71-.03-2.72-1.54-4.25-4.24-4.63-.89-.12-1.79-.17-2.69-.17-5.73-.01-11.47,0-17.2,0Z"/>
      <path class="cls-1" d="m62.73,33.65c-2.9-.02-4.67-1.81-4.66-4.7.01-2.87,1.81-4.63,4.72-4.63,2.8,0,4.73,1.92,4.71,4.7-.02,2.77-1.95,4.65-4.78,4.63Z"/>
      <path class="cls-1" d="m33.7,24.33c2.88-.02,4.73,1.78,4.75,4.61.02,2.86-1.79,4.7-4.65,4.71-2.92.01-4.72-1.74-4.73-4.61-.02-2.91,1.74-4.69,4.63-4.71Z"/>
    </g>
  </g>
</svg>