<?xml version="1.0" encoding="UTF-8"?>
<svg id="_圖層_2" data-name="圖層 2" xmlns="http://www.w3.org/2000/svg" viewBox="0 0 94.8 92.15">
  <defs>
    <style>
      .cls-1 {
        fill: #fff;
      }
    </style>
  </defs>
  <g id="_圖層_1-2" data-name="圖層 1">
    <path class="cls-1" d="m57.75,65.2c2.29-.48,5.02-.92,7.66-1.65,8.02-2.21,11.89-7.13,12.66-15.42.51-5.47.17-10.57-3.96-14.79-.45-.46-.22-1.64-.25-2.48-.09-2.98-.05-5.97-.26-8.94-.17-2.38-1.76-3.05-3.81-2.25-2.72,1.06-5.43,2.19-7.98,3.6-1.57.87-2.86,1.35-4.73.9-6.52-1.56-13.09-1.36-19.66,0-1.05.22-2.32-.1-3.35-.51-3.15-1.26-6.21-2.78-9.37-4.02-1.71-.67-2.93.08-3.05,1.99-.19,3.14-.25,6.29-.39,9.44-.03.76.12,1.76-.29,2.22-3.43,3.86-4.14,8.44-3.58,13.29.31,2.65.91,5.3,1.66,7.87,1.18,4.07,4.13,6.64,7.99,8.01,3.42,1.22,6.99,2.05,10.6,3.08-.61,1.65-1.29,3.61-2.08,5.52-.15.37-.69.69-1.12.8-5.39,1.38-8.87.86-11.75-3.29-1.84-2.64-3.64-5.31-7.13-5.87-1.05-.17-2.15-.03-3.22-.03-.08.24-.16.48-.24.72.76.78,1.6,1.5,2.28,2.35,1.65,2.08,3.74,4.02,4.72,6.39,1.77,4.31,4.85,6.18,9.19,6.43,2.34.14,4.69.02,7.28.02,0,3.86.08,7.59-.03,11.31-.06,1.98-1.4,2.66-3.76,1.88-5.88-1.94-11.16-4.99-15.77-9.13C-1.84,66.64-5.29,39.09,8.33,19.42,17.83,5.7,31.54-.35,47.89.02c18.25.41,32.61,8.37,41.42,24.63,12.42,22.92,3.65,56.16-25.04,66.89-3.57,1.33-4.66.57-4.69-3.21-.04-5.06.11-10.13-.17-15.17-.14-2.6-1.04-5.16-1.65-7.96Z"/>
  </g>
</svg>