<?xml version="1.0" encoding="UTF-8"?>
<svg id="_圖層_2" data-name="圖層 2" xmlns="http://www.w3.org/2000/svg" viewBox="0 0 85.4 85.51">
  <defs>
    <style>
      .cls-1 {
        fill: #fff;
      }
    </style>
  </defs>
  <g id="_圖層_1-2" data-name="圖層 1">
    <g>
      <path class="cls-1" d="m85.39,42.68c0,8.92,0,17.84,0,26.76-.01,9.64-6.46,16.06-16.15,16.06-17.69,0-35.39,0-53.08,0C6.58,85.5.01,78.94,0,69.38,0,51.68,0,33.99,0,16.29.02,6.69,6.69.02,16.3.01c17.62-.01,35.25-.02,52.87,0,9.52,0,16.2,6.67,16.22,16.13.02,8.85,0,17.69,0,26.54ZM41.46,13.54c-1.76.25-4.55.45-7.24,1.05-7.31,1.64-13.61,5.11-18.27,11.1-8.09,10.42-5.34,24.74,6.22,32.68,4.24,2.91,8.92,4.71,14,5.5,4.08.63,4.68,1.5,3.9,5.57-.08.42-.14.84-.19,1.27-.28,2.51.36,2.99,2.76,2.05.26-.1.53-.22.78-.36,8.74-5.04,17.18-10.49,24.07-17.98,8.56-9.32,8.68-21.44.05-30.64-6.72-7.16-15.43-9.92-26.07-10.25Z"/>
      <path class="cls-1" d="m48.52,40.17v-7.39c2.72-.99,3.35-.64,3.38,1.86.03,3.42.06,6.85-.04,10.27-.02.71-.6,1.99-.92,1.99-.94,0-2.19-.24-2.75-.89-1.84-2.14-3.44-4.5-5.13-6.77-.22.04-.45.07-.67.11,0,1.93-.01,3.86,0,5.8.01,1.28-.43,2.2-1.85,1.87-.56-.13-1.37-.85-1.39-1.33-.11-4.34-.06-8.69-.06-13,1.65-.79,2.79-.49,3.79.94,1.61,2.31,3.36,4.53,5.05,6.78.19-.08.39-.17.58-.25Z"/>
      <path class="cls-1" d="m63.69,38.04q.3,3.41-2.66,3.41c-1.13,0-2.25,0-3.42,0-.5,1.51-.31,2.36,1.38,2.27.71-.04,1.42,0,2.14,0q2.93,0,2.51,3.33c-2.77,0-5.59.06-8.4-.07-.39-.02-1.04-.94-1.06-1.46-.09-3.91-.12-7.83,0-11.74.02-.52.95-1.4,1.51-1.44,2.19-.17,4.41-.05,6.62-.08,1.22-.02,1.56.58,1.56,1.72,0,1.16-.37,1.73-1.57,1.71-1.28-.02-2.57-.08-3.84.08-.41.05-1.05.75-1.03,1.14.01.39.68,1.05,1.1,1.08,1.68.12,3.37.05,5.16.05Z"/>
      <path class="cls-1" d="m24.93,38.07c.04,1.71-.55,3.92.3,4.97.73.91,3.1.6,4.75.65,1.2.04,1.41.63,1.42,1.62.01,1.07-.18,1.81-1.49,1.79-2.21-.04-4.43.09-6.63-.08-.54-.04-1.43-.96-1.44-1.5-.12-3.92-.12-7.85,0-11.77.02-.51,1-1.37,1.53-1.37.52,0,1.4.84,1.49,1.41.22,1.39.07,2.84.08,4.27Z"/>
      <path class="cls-1" d="m36.83,39.72c0,1.92-.04,3.84.01,5.76.03,1.22-.56,1.59-1.69,1.64-1.24.05-1.65-.53-1.64-1.65.01-3.84.01-7.68,0-11.53,0-1.14.46-1.7,1.66-1.68,1.17.02,1.68.53,1.66,1.69-.03,1.92,0,3.84,0,5.76Z"/>
    </g>
  </g>
</svg>