<?xml version="1.0" encoding="UTF-8"?>
<svg id="_圖層_2" data-name="圖層 2" xmlns="http://www.w3.org/2000/svg" viewBox="0 0 85.17 84.92">
  <defs>
    <style>
      .cls-1 {
        fill: #fff;
      }
    </style>
  </defs>
  <g id="_圖層_1-2" data-name="圖層 1">
    <g>
      <path class="cls-1" d="m42.82.09c6.2,0,12.4-.07,18.59.02,12.71.18,23.14,9.87,23.49,22.54.38,13.6.31,27.22-.02,40.82-.25,10.69-10.15,20.86-20.79,21.16-14.25.4-28.53.41-42.78,0-10.97-.32-20.53-10.29-20.89-21.27C.06,51.7-.06,40.04.03,28.38c.05-6,.38-12.06,3.97-17.37C8.7,4.07,15.28.5,23.5.14c6.43-.28,12.88-.06,19.32-.06Zm-.3,77.4c0-.24,0,.24,0,0,6.19,0,12.39.15,18.58-.04,6.77-.21,12.37-2.85,14.9-9.5,1.19-3.12,1.52-6.67,1.68-10.05.28-5.94.22-11.89.13-17.84-.09-6.1-.13-12.22-.66-18.3-.68-7.93-6.56-13.69-14.52-13.86-13.27-.29-26.56-.28-39.83,0-8.19.17-14,5.7-14.69,13.9-.61,7.21-.66,14.48-.65,21.73,0,6.84.12,13.7.7,20.51.58,6.86,5.58,12.07,12.41,12.83,7.27.81,14.61.7,21.95.63Z"/>
      <path class="cls-1" d="m64.43,42.6c0,11.99-9.77,21.86-21.7,21.94-11.95.08-22.06-10.03-21.98-21.98.09-12.19,9.9-21.95,22.03-21.9,11.97.05,21.66,9.88,21.66,21.94Zm-7.42-.06c0-8.03-6.51-14.48-14.5-14.39-7.93.09-14.32,6.48-14.35,14.34-.03,7.99,6.43,14.48,14.43,14.52,8.02.03,14.43-6.4,14.42-14.46Z"/>
      <path class="cls-1" d="m65.2,24.61c-2.74-.18-4.81-2.47-4.7-5.22.11-2.73,2.66-4.91,5.48-4.67,2.8.24,4.73,2.51,4.5,5.31-.22,2.78-2.5,4.76-5.28,4.58Z"/>
    </g>
  </g>
</svg>