<?xml version="1.0" encoding="UTF-8"?>
<svg id="_圖層_2" data-name="圖層 2" xmlns="http://www.w3.org/2000/svg" viewBox="0 0 85.6 85.51">
  <defs>
    <style>
      .cls-1 {
        fill: #fff;
      }
    </style>
  </defs>
  <g id="_圖層_1-2" data-name="圖層 1">
    <path class="cls-1" d="m42.73,85.51c-12.07,0-24.15,0-36.22,0-4.23,0-6.49-2.2-6.49-6.46-.02-24.15-.02-48.3,0-72.44C.02,2.75,1.88.69,5.63.21,6.6.08,7.58,0,8.56,0,31.4,0,54.24,0,77.08,0c.89,0,1.79.05,2.68.16,3.85.48,5.77,2.59,5.81,6.52.05,5.14.01,10.28.01,15.42,0,18.6,0,37.2,0,55.8,0,5.7-1.91,7.59-7.62,7.59-11.75,0-23.5,0-35.24,0Zm3.19-53.05c-3.37,0-6.53.12-9.69-.04-2.07-.1-2.61.64-2.59,2.64.08,12.07.04,24.14.05,36.21,0,.77.1,1.55.16,2.25h12.84c0-7.19-.07-14.2.04-21.2.03-1.92.36-3.91.96-5.74.87-2.67,3.35-3.88,6.74-3.71,3.02.15,4.77,1.39,5.44,4.29.48,2.04.75,4.18.78,6.27.09,6.03.05,12.07-.05,18.1-.03,1.66.64,2.13,2.17,2.09,2.77-.07,5.55-.1,8.32.01,1.81.07,2.4-.56,2.38-2.39-.09-7.91.04-15.82-.09-23.73-.04-2.25-.47-4.55-1.04-6.74-1.09-4.23-3.62-7.33-8-8.43-6.32-1.59-12.32-1.43-17.1,3.91-.19.22-.49.34-1.02.69-.11-1.52-.2-2.78-.32-4.5Zm-19.93,20.57c0-6.12-.05-12.23.03-18.35.02-1.7-.5-2.31-2.22-2.25-2.93.11-5.87.08-8.81.01-1.47-.04-1.99.49-1.98,1.99.04,12.4.04,24.79,0,37.19,0,1.49.53,2.04,1.99,2.02,2.93-.05,5.87-.09,8.81.02,1.74.07,2.23-.6,2.21-2.28-.08-6.12-.03-12.23-.03-18.35Zm-6.52-40.73c-4.29.01-7.41,3.1-7.44,7.35-.03,4.1,3.32,7.48,7.42,7.51,4.05.03,7.43-3.39,7.44-7.5,0-4.23-3.16-7.38-7.41-7.37Z"/>
  </g>
</svg>