<?xml version="1.0" encoding="UTF-8"?>
<svg id="_圖層_2" data-name="圖層 2" xmlns="http://www.w3.org/2000/svg" xmlns:xlink="http://www.w3.org/1999/xlink" viewBox="0 0 1200 675">
  <defs>
    <style>
      .cls-1, .cls-2, .cls-3, .cls-4, .cls-5 {
        fill: #fff;
      }

      .cls-6, .cls-7 {
        stroke: #fff;
        stroke-miterlimit: 10;
      }

      .cls-6, .cls-7, .cls-8 {
        fill: none;
      }

      .cls-9 {
        clip-path: url(#clippath-2);
      }

      .cls-2 {
        font-size: 18px;
      }

      .cls-2, .cls-3, .cls-4, .cls-5 {
        font-family: jf-openhuninn-2.0, jf-openhuninn-2.0;
      }

      .cls-10 {
        clip-path: url(#clippath-1);
      }

      .cls-3 {
        font-size: 39.81px;
      }

      .cls-7 {
        stroke-width: .5px;
      }

      .cls-11 {
        fill: #25a0cc;
      }

      .cls-4 {
        font-size: 29.86px;
      }

      .cls-12 {
        clip-path: url(#clippath);
      }

      .cls-5 {
        font-size: 36px;
      }

      .cls-13 {
        letter-spacing: 0em;
      }

      .cls-14 {
        fill: #404040;
      }
    </style>
    <clipPath id="clippath">
      <path class="cls-8" d="m489.7,150.91h-193.63c-5.93,0-11.4,3.16-14.37,8.29l-96.81,167.69c-2.96,5.13-2.96,11.46,0,16.59l96.81,167.69c2.96,5.13,8.44,8.29,14.37,8.29h193.63c5.93,0,11.4-3.16,14.37-8.29l96.81-167.69c2.96-5.13,2.96-11.46,0-16.59l-96.81-167.69c-2.96-5.13-8.44-8.29-14.37-8.29Z"/>
    </clipPath>
    <clipPath id="clippath-1">
      <path class="cls-8" d="m878.39,132.89h-144.93c-4.44,0-8.53,2.37-10.75,6.21l-72.46,125.51c-2.22,3.84-2.22,8.57,0,12.42l72.46,125.51c2.22,3.84,6.32,6.21,10.75,6.21h144.93c4.44,0,8.53-2.37,10.75-6.21l72.46-125.51c2.22-3.84,2.22-8.57,0-12.42l-72.46-125.51c-2.22-3.84-6.32-6.21-10.75-6.21Z"/>
    </clipPath>
    <clipPath id="clippath-2">
      <path class="cls-8" d="m852.76,447.57h-63.76c-1.95,0-3.76,1.04-4.73,2.73l-31.88,55.22c-.98,1.69-.98,3.77,0,5.46l31.88,55.22c.98,1.69,2.78,2.73,4.73,2.73h63.76c1.95,0,3.76-1.04,4.73-2.73l31.88-55.22c.98-1.69.98-3.77,0-5.46l-31.88-55.22c-.98-1.69-2.78-2.73-4.73-2.73Z"/>
    </clipPath>
  </defs>
  <g id="_圖層_2-2" data-name="圖層 2">
    <rect class="cls-14" x="262.5" y="-262.5" width="675" height="1200" transform="translate(937.5 -262.5) rotate(90)"/>
    <g>
      <text class="cls-3" transform="translate(371.26 132.46)"><tspan x="0" y="0">5X</tspan></text>
      <g>
        <g class="cls-12">
          <g>
            <polyline class="cls-7" points="286.48 519.49 286.5 519.49 329.05 519.49 329.06 519.49 371.61 519.49 414.16 519.49 456.73 519.49 499.28 519.49 499.3 519.49"/>
            <polyline class="cls-7" points="520.58 482.63 520.56 482.63 478.01 482.63 435.45 482.63 392.88 482.63 350.33 482.63 307.78 482.63 307.76 482.63 265.21 482.63 265.2 482.63"/>
            <polyline class="cls-7" points="180.08 335.19 180.08 335.2 201.36 372.05 222.64 408.91 243.93 445.77 265.2 482.61 265.2 482.63 265.21 482.63 286.48 519.49 286.5 519.49"/>
            <polyline class="cls-7" points="329.06 519.49 329.05 519.49 329.05 519.47 307.78 482.63 307.78 482.61 286.5 445.77 286.5 445.75 265.21 408.91 265.21 408.89 243.93 372.05 222.64 335.19 222.64 335.17 201.38 298.33 201.36 298.33"/>
            <polyline class="cls-7" points="371.61 519.49 371.61 519.47 350.33 482.63 350.33 482.61 329.06 445.77 329.05 445.77 307.78 408.91 307.76 408.91 307.76 408.89 286.5 372.05 286.48 372.05 286.48 372.03 265.21 335.19 243.93 298.33 222.64 261.47"/>
            <polyline class="cls-7" points="414.16 519.49 392.88 482.63 371.61 445.77 371.6 445.77 350.33 408.91 350.31 408.91 329.05 372.05 307.76 335.19 286.48 298.34 286.48 298.33 265.2 261.47 243.93 224.62"/>
            <polyline class="cls-7" points="456.73 519.49 435.45 482.63 414.16 445.77 392.88 408.91 371.61 372.05 350.33 335.19 329.05 298.33 307.76 261.48 307.76 261.47 286.5 224.62 286.48 224.62 286.48 224.61 265.21 187.76 265.2 187.76"/>
            <polyline class="cls-7" points="499.3 519.49 499.28 519.49 499.28 519.47 478.01 482.63 456.73 445.77 435.45 408.91 414.16 372.05 392.88 335.19 371.61 298.33 371.6 298.33 350.33 261.47 350.31 261.47 329.05 224.62 307.76 187.76 307.76 187.75 286.48 150.9"/>
            <polyline class="cls-7" points="520.58 482.63 520.56 482.63 520.56 482.61 499.3 445.77 478.01 408.91 478.01 408.89 456.73 372.05 456.73 372.03 435.45 335.19 414.16 298.33 392.9 261.47 371.61 224.62 371.61 224.61 350.33 187.76 350.33 187.75 329.06 150.9 329.05 150.89"/>
            <polyline class="cls-7" points="541.85 445.77 520.56 408.93 520.56 408.91 499.28 372.05 478.01 335.19 478 335.19 456.73 298.33 435.45 261.47 414.18 224.62 414.16 224.62 414.16 224.61 392.9 187.76 392.88 187.76 392.88 187.75 371.61 150.9"/>
            <polyline class="cls-7" points="563.13 408.91 563.13 408.89 541.85 372.05 520.56 335.19 499.28 298.33 478.01 261.48 478.01 261.47 478 261.47 456.73 224.62 456.73 224.61 435.45 187.76 414.16 150.9"/>
            <polyline class="cls-7" points="584.41 372.05 584.4 372.05 563.13 335.2 563.13 335.19 541.85 298.33 520.56 261.47 499.3 224.62 499.28 224.62 478.01 187.76 478 187.76 456.73 150.9"/>
            <polyline class="cls-7" points="499.3 150.89 499.3 150.9 520.58 187.75 520.58 187.76 541.85 224.61 541.86 224.62 563.13 261.47 584.41 298.33 605.68 335.17 605.68 335.19 605.7 335.19"/>
            <polyline class="cls-7" points="541.85 445.77 499.3 445.77 456.73 445.77 456.71 445.77 414.16 445.77 371.61 445.77 371.6 445.77 329.06 445.77 329.05 445.77 286.5 445.77 286.48 445.77 243.93 445.77 243.91 445.77"/>
            <polyline class="cls-7" points="563.13 408.91 563.11 408.91 520.58 408.91 520.56 408.91 478.01 408.91 478 408.91 435.45 408.91 392.88 408.91 350.33 408.91 350.31 408.91 307.78 408.91 307.76 408.91 265.21 408.91 265.2 408.91 222.64 408.91"/>
            <polyline class="cls-7" points="584.41 372.05 584.4 372.05 541.86 372.05 541.85 372.05 499.28 372.05 456.73 372.05 414.16 372.05 371.61 372.05 329.05 372.05 286.5 372.05 286.48 372.05 243.93 372.05 201.36 372.05"/>
            <polyline class="cls-7" points="605.7 335.19 605.68 335.19 563.13 335.19 520.56 335.19 478.01 335.19 478 335.19 435.45 335.19 392.9 335.19 392.88 335.19 350.33 335.19 307.76 335.19 265.21 335.19 222.64 335.19 180.09 335.19 180.08 335.19"/>
            <polyline class="cls-7" points="584.41 298.33 541.85 298.33 499.28 298.33 456.73 298.33 414.16 298.33 371.61 298.33 371.6 298.33 329.05 298.33 286.5 298.33 286.48 298.33 243.93 298.33 243.91 298.33 201.38 298.33 201.36 298.33"/>
            <polyline class="cls-7" points="222.64 261.47 265.2 261.47 307.76 261.47 307.78 261.47 350.31 261.47 350.33 261.47 392.9 261.47 435.45 261.47 478 261.47 478.01 261.47 520.56 261.47 563.13 261.47"/>
            <polyline class="cls-7" points="243.93 224.62 286.48 224.62 286.5 224.62 329.05 224.62 371.6 224.62 371.61 224.62 414.16 224.62 414.18 224.62 456.71 224.62 456.73 224.62 499.28 224.62 499.3 224.62 541.83 224.62 541.86 224.62"/>
            <polyline class="cls-7" points="265.2 187.76 265.21 187.76 307.76 187.76 350.33 187.76 392.88 187.76 392.9 187.76 435.45 187.76 478 187.76 478.01 187.76 520.56 187.76 520.58 187.76"/>
            <polyline class="cls-7" points="499.3 150.9 499.28 150.9 456.73 150.9 414.16 150.9 371.61 150.9 329.06 150.9 329.03 150.9 286.48 150.9"/>
            <polyline class="cls-7" points="499.28 519.49 499.28 519.47 520.56 482.63 520.56 482.61 541.85 445.77 563.11 408.91 563.13 408.91 563.13 408.89 584.4 372.05 584.41 372.05 605.68 335.19 605.68 335.17"/>
            <polyline class="cls-7" points="584.41 298.33 563.13 335.19 563.13 335.2 541.86 372.05 541.85 372.05 520.58 408.91 520.56 408.91 520.56 408.93 499.3 445.77 478.01 482.63 456.73 519.49"/>
            <polyline class="cls-7" points="414.16 519.49 435.45 482.63 456.71 445.77 456.73 445.77 478 408.91 478.01 408.91 478.01 408.89 499.28 372.05 520.56 335.19 541.85 298.33 563.13 261.47"/>
            <polyline class="cls-7" points="371.61 519.49 371.61 519.47 392.88 482.63 414.16 445.77 435.45 408.91 456.73 372.05 456.73 372.03 478 335.19 478.01 335.19 499.28 298.33 520.56 261.47 541.83 224.62 541.85 224.61"/>
            <polyline class="cls-7" points="329.05 519.49 329.05 519.47 350.33 482.63 350.33 482.61 371.6 445.77 371.61 445.77 392.88 408.91 414.16 372.05 435.45 335.19 456.73 298.33 478.01 261.48 478.01 261.47 499.28 224.62 499.3 224.62 520.56 187.76 520.58 187.76 520.58 187.75"/>
            <polyline class="cls-7" points="286.48 519.49 286.5 519.49 307.76 482.63 307.78 482.63 307.78 482.61 329.05 445.77 350.33 408.91 371.61 372.05 392.88 335.19 392.9 335.19 414.16 298.33 435.45 261.47 456.71 224.62 456.73 224.62 456.73 224.61 478 187.76 478.01 187.76 499.28 150.9 499.3 150.9 499.3 150.89"/>
            <polyline class="cls-7" points="265.2 482.63 265.2 482.61 286.48 445.77 286.5 445.77 286.5 445.75 307.76 408.91 307.76 408.89 329.05 372.05 350.33 335.19 371.6 298.33 371.61 298.33 392.9 261.47 414.16 224.62 414.16 224.61 435.45 187.76 456.73 150.9"/>
            <polyline class="cls-7" points="243.91 445.77 243.93 445.77 265.2 408.91 265.21 408.91 265.21 408.89 286.48 372.05 286.48 372.03 307.76 335.19 329.05 298.33 350.33 261.47 371.6 224.62 371.61 224.62 371.61 224.61 392.88 187.76 392.88 187.75 414.16 150.9"/>
            <polyline class="cls-7" points="371.61 150.9 350.33 187.75 350.33 187.76 329.05 224.62 307.78 261.47 307.76 261.47 307.76 261.48 286.5 298.33 286.48 298.33 286.48 298.34 265.21 335.19 243.93 372.05 222.64 408.91"/>
            <polyline class="cls-7" points="329.05 150.89 329.03 150.9 307.76 187.75 307.76 187.76 286.48 224.61 286.48 224.62 265.2 261.47 243.93 298.33 243.91 298.33 222.64 335.17 222.64 335.19 201.36 372.05"/>
            <polyline class="cls-7" points="180.08 335.2 180.09 335.19 201.36 298.33 201.38 298.33 222.64 261.47 243.93 224.62 265.2 187.76 265.21 187.76 286.48 150.9"/>
          </g>
          <path class="cls-8" d="m489.7,150.91h-193.63c-5.93,0-11.4,3.16-14.37,8.29l-96.81,167.69c-2.96,5.13-2.96,11.46,0,16.59l96.81,167.69c2.96,5.13,8.44,8.29,14.37,8.29h193.63c5.93,0,11.4-3.16,14.37-8.29l96.81-167.69c2.96-5.13,2.96-11.46,0-16.59l-96.81-167.69c-2.96-5.13-8.44-8.29-14.37-8.29Z"/>
        </g>
        <path class="cls-6" d="m489.7,150.91h-193.63c-5.93,0-11.4,3.16-14.37,8.29l-96.81,167.69c-2.96,5.13-2.96,11.46,0,16.59l96.81,167.69c2.96,5.13,8.44,8.29,14.37,8.29h193.63c5.93,0,11.4-3.16,14.37-8.29l96.81-167.69c2.96-5.13,2.96-11.46,0-16.59l-96.81-167.69c-2.96-5.13-8.44-8.29-14.37-8.29Z"/>
      </g>
      <g>
        <g class="cls-10">
          <g>
            <polyline class="cls-7" points="726.28 408.76 726.29 408.76 758.14 408.76 758.15 408.76 790 408.76 821.85 408.76 853.71 408.76 885.56 408.76 885.57 408.76"/>
            <polyline class="cls-7" points="901.5 381.17 901.49 381.17 869.64 381.17 837.78 381.17 805.92 381.17 774.07 381.17 742.22 381.17 742.21 381.17 710.36 381.17 710.35 381.17"/>
            <polyline class="cls-7" points="646.64 270.81 646.64 270.83 662.57 298.4 678.5 325.99 694.43 353.58 710.35 381.16 710.35 381.17 710.36 381.17 726.28 408.76 726.29 408.76"/>
            <polyline class="cls-7" points="758.15 408.76 758.14 408.76 758.14 408.75 742.22 381.17 742.22 381.16 726.29 353.58 726.29 353.57 710.36 325.99 710.36 325.98 694.43 298.4 678.5 270.81 678.5 270.8 662.58 243.23 662.57 243.23"/>
            <polyline class="cls-7" points="790 408.76 790 408.75 774.07 381.17 774.07 381.16 758.15 353.58 758.14 353.58 742.22 325.99 742.21 325.99 742.21 325.98 726.29 298.4 726.28 298.4 726.28 298.39 710.36 270.81 694.43 243.23 678.5 215.64"/>
            <polyline class="cls-7" points="821.85 408.76 805.92 381.17 790 353.58 789.99 353.58 774.07 325.99 774.06 325.99 758.14 298.4 742.21 270.81 726.28 243.24 726.28 243.23 710.35 215.64 694.43 188.06"/>
            <polyline class="cls-7" points="853.71 408.76 837.78 381.17 821.85 353.58 805.92 325.99 790 298.4 774.07 270.81 758.14 243.23 742.21 215.65 742.21 215.64 726.29 188.06 726.28 188.06 726.28 188.05 710.36 160.47 710.35 160.47"/>
            <polyline class="cls-7" points="885.57 408.76 885.56 408.76 885.56 408.75 869.64 381.17 853.71 353.58 837.78 325.99 821.85 298.4 805.92 270.81 790 243.23 789.99 243.23 774.07 215.64 774.06 215.64 758.14 188.06 742.21 160.47 742.21 160.46 726.28 132.88"/>
            <polyline class="cls-7" points="901.5 381.17 901.49 381.17 901.49 381.16 885.57 353.58 869.64 325.99 869.64 325.98 853.71 298.4 853.71 298.39 837.78 270.81 821.85 243.23 805.93 215.64 790 188.06 790 188.05 774.07 160.47 774.07 160.46 758.15 132.88 758.14 132.87"/>
            <polyline class="cls-7" points="917.42 353.58 901.49 326.01 901.49 325.99 885.56 298.4 869.64 270.81 869.62 270.81 853.71 243.23 837.78 215.64 821.86 188.06 821.85 188.06 821.85 188.05 805.93 160.47 805.92 160.47 805.92 160.46 790 132.88"/>
            <polyline class="cls-7" points="933.35 325.99 933.35 325.98 917.42 298.4 901.49 270.81 885.56 243.23 869.64 215.65 869.64 215.64 869.62 215.64 853.71 188.06 853.71 188.05 837.78 160.47 821.85 132.88"/>
            <polyline class="cls-7" points="949.28 298.4 949.26 298.4 933.35 270.83 933.35 270.81 917.42 243.23 901.49 215.64 885.57 188.06 885.56 188.06 869.64 160.47 869.62 160.47 853.71 132.88"/>
            <polyline class="cls-7" points="885.57 132.87 885.57 132.88 901.5 160.46 901.5 160.47 917.42 188.05 917.43 188.06 933.35 215.64 949.28 243.23 965.19 270.8 965.19 270.81 965.21 270.81"/>
            <polyline class="cls-7" points="917.42 353.58 885.57 353.58 853.71 353.58 853.69 353.58 821.85 353.58 790 353.58 789.99 353.58 758.15 353.58 758.14 353.58 726.29 353.58 726.28 353.58 694.43 353.58 694.42 353.58"/>
            <polyline class="cls-7" points="933.35 325.99 933.33 325.99 901.5 325.99 901.49 325.99 869.64 325.99 869.62 325.99 837.78 325.99 805.92 325.99 774.07 325.99 774.06 325.99 742.22 325.99 742.21 325.99 710.36 325.99 710.35 325.99 678.5 325.99"/>
            <polyline class="cls-7" points="949.28 298.4 949.26 298.4 917.43 298.4 917.42 298.4 885.56 298.4 853.71 298.4 821.85 298.4 790 298.4 758.14 298.4 726.29 298.4 726.28 298.4 694.43 298.4 662.57 298.4"/>
            <polyline class="cls-7" points="965.21 270.81 965.19 270.81 933.35 270.81 901.49 270.81 869.64 270.81 869.62 270.81 837.78 270.81 805.93 270.81 805.92 270.81 774.07 270.81 742.21 270.81 710.36 270.81 678.5 270.81 646.65 270.81 646.64 270.81"/>
            <polyline class="cls-7" points="949.28 243.23 917.42 243.23 885.56 243.23 853.71 243.23 821.85 243.23 790 243.23 789.99 243.23 758.14 243.23 726.29 243.23 726.28 243.23 694.43 243.23 694.42 243.23 662.58 243.23 662.57 243.23"/>
            <polyline class="cls-7" points="678.5 215.64 710.35 215.64 742.21 215.64 742.22 215.64 774.06 215.64 774.07 215.64 805.93 215.64 837.78 215.64 869.62 215.64 869.64 215.64 901.49 215.64 933.35 215.64"/>
            <polyline class="cls-7" points="694.43 188.06 726.28 188.06 726.29 188.06 758.14 188.06 789.99 188.06 790 188.06 821.85 188.06 821.86 188.06 853.69 188.06 853.71 188.06 885.56 188.06 885.57 188.06 917.4 188.06 917.43 188.06"/>
            <polyline class="cls-7" points="710.35 160.47 710.36 160.47 742.21 160.47 774.07 160.47 805.92 160.47 805.93 160.47 837.78 160.47 869.62 160.47 869.64 160.47 901.49 160.47 901.5 160.47"/>
            <polyline class="cls-7" points="885.57 132.88 885.56 132.88 853.71 132.88 821.85 132.88 790 132.88 758.15 132.88 758.13 132.88 726.28 132.88"/>
            <polyline class="cls-7" points="885.56 408.76 885.56 408.75 901.49 381.17 901.49 381.16 917.42 353.58 933.33 325.99 933.35 325.99 933.35 325.98 949.26 298.4 949.28 298.4 965.19 270.81 965.19 270.8"/>
            <polyline class="cls-7" points="949.28 243.23 933.35 270.81 933.35 270.83 917.43 298.4 917.42 298.4 901.5 325.99 901.49 325.99 901.49 326.01 885.57 353.58 869.64 381.17 853.71 408.76"/>
            <polyline class="cls-7" points="821.85 408.76 837.78 381.17 853.69 353.58 853.71 353.58 869.62 325.99 869.64 325.99 869.64 325.98 885.56 298.4 901.49 270.81 917.42 243.23 933.35 215.64"/>
            <polyline class="cls-7" points="790 408.76 790 408.75 805.92 381.17 821.85 353.58 837.78 325.99 853.71 298.4 853.71 298.39 869.62 270.81 869.64 270.81 885.56 243.23 901.49 215.64 917.4 188.06 917.42 188.05"/>
            <polyline class="cls-7" points="758.14 408.76 758.14 408.75 774.07 381.17 774.07 381.16 789.99 353.58 790 353.58 805.92 325.99 821.85 298.4 837.78 270.81 853.71 243.23 869.64 215.65 869.64 215.64 885.56 188.06 885.57 188.06 901.49 160.47 901.5 160.47 901.5 160.46"/>
            <polyline class="cls-7" points="726.28 408.76 726.29 408.76 742.21 381.17 742.22 381.17 742.22 381.16 758.14 353.58 774.07 325.99 790 298.4 805.92 270.81 805.93 270.81 821.85 243.23 837.78 215.64 853.69 188.06 853.71 188.06 853.71 188.05 869.62 160.47 869.64 160.47 885.56 132.88 885.57 132.88 885.57 132.87"/>
            <polyline class="cls-7" points="710.35 381.17 710.35 381.16 726.28 353.58 726.29 353.58 726.29 353.57 742.21 325.99 742.21 325.98 758.14 298.4 774.07 270.81 789.99 243.23 790 243.23 805.93 215.64 821.85 188.06 821.85 188.05 837.78 160.47 853.71 132.88"/>
            <polyline class="cls-7" points="694.42 353.58 694.43 353.58 710.35 325.99 710.36 325.99 710.36 325.98 726.28 298.4 726.28 298.39 742.21 270.81 758.14 243.23 774.07 215.64 789.99 188.06 790 188.06 790 188.05 805.92 160.47 805.92 160.46 821.85 132.88"/>
            <polyline class="cls-7" points="790 132.88 774.07 160.46 774.07 160.47 758.14 188.06 742.22 215.64 742.21 215.64 742.21 215.65 726.29 243.23 726.28 243.23 726.28 243.24 710.36 270.81 694.43 298.4 678.5 325.99"/>
            <polyline class="cls-7" points="758.14 132.87 758.13 132.88 742.21 160.46 742.21 160.47 726.28 188.05 726.28 188.06 710.35 215.64 694.43 243.23 694.42 243.23 678.5 270.8 678.5 270.81 662.57 298.4"/>
            <polyline class="cls-7" points="646.64 270.83 646.65 270.81 662.57 243.23 662.58 243.23 678.5 215.64 694.43 188.06 710.35 160.47 710.36 160.47 726.28 132.88"/>
          </g>
          <path class="cls-8" d="m878.39,132.89h-144.93c-4.44,0-8.53,2.37-10.75,6.21l-72.46,125.51c-2.22,3.84-2.22,8.57,0,12.42l72.46,125.51c2.22,3.84,6.32,6.21,10.75,6.21h144.93c4.44,0,8.53-2.37,10.75-6.21l72.46-125.51c2.22-3.84,2.22-8.57,0-12.42l-72.46-125.51c-2.22-3.84-6.32-6.21-10.75-6.21Z"/>
        </g>
        <path class="cls-6" d="m878.39,132.89h-144.93c-4.44,0-8.53,2.37-10.75,6.21l-72.46,125.51c-2.22,3.84-2.22,8.57,0,12.42l72.46,125.51c2.22,3.84,6.32,6.21,10.75,6.21h144.93c4.44,0,8.53-2.37,10.75-6.21l72.46-125.51c2.22-3.84,2.22-8.57,0-12.42l-72.46-125.51c-2.22-3.84-6.32-6.21-10.75-6.21Z"/>
      </g>
      <g>
        <g class="cls-9">
          <g>
            <polyline class="cls-7" points="785.84 568.94 785.84 568.94 799.85 568.94 799.86 568.94 813.87 568.94 827.88 568.94 841.9 568.94 855.91 568.94 855.92 568.94"/>
            <polyline class="cls-7" points="862.93 556.8 862.92 556.8 848.91 556.8 834.89 556.8 820.88 556.8 806.86 556.8 792.85 556.8 792.85 556.8 778.83 556.8 778.83 556.8"/>
            <polyline class="cls-7" points="750.8 508.25 750.8 508.25 757.81 520.39 764.82 532.52 771.83 544.66 778.83 556.79 778.83 556.8 778.83 556.8 785.84 568.94 785.84 568.94"/>
            <polyline class="cls-7" points="799.86 568.94 799.85 568.94 799.85 568.93 792.85 556.8 792.85 556.79 785.84 544.66 785.84 544.66 778.83 532.52 778.83 532.52 771.83 520.39 764.82 508.25 764.82 508.24 757.81 496.11 757.81 496.11"/>
            <polyline class="cls-7" points="813.87 568.94 813.87 568.93 806.86 556.8 806.86 556.79 799.86 544.66 799.85 544.66 792.85 532.52 792.85 532.52 792.85 532.52 785.84 520.39 785.84 520.39 785.84 520.38 778.83 508.25 771.83 496.11 764.82 483.97"/>
            <polyline class="cls-7" points="827.88 568.94 820.88 556.8 813.87 544.66 813.87 544.66 806.86 532.52 806.86 532.52 799.85 520.39 792.85 508.25 785.84 496.12 785.84 496.11 778.83 483.97 771.83 471.84"/>
            <polyline class="cls-7" points="841.9 568.94 834.89 556.8 827.88 544.66 820.88 532.52 813.87 520.39 806.86 508.25 799.85 496.11 792.85 483.98 792.85 483.97 785.84 471.84 785.84 471.84 785.84 471.83 778.83 459.7 778.83 459.7"/>
            <polyline class="cls-7" points="855.92 568.94 855.91 568.94 855.91 568.93 848.91 556.8 841.9 544.66 834.89 532.52 827.88 520.39 820.88 508.25 813.87 496.11 813.87 496.11 806.86 483.97 806.86 483.97 799.85 471.84 792.85 459.7 792.85 459.7 785.84 447.56"/>
            <polyline class="cls-7" points="862.93 556.8 862.92 556.8 862.92 556.79 855.92 544.66 848.91 532.52 848.91 532.52 841.9 520.39 841.9 520.38 834.89 508.25 827.88 496.11 820.88 483.97 813.87 471.84 813.87 471.83 806.86 459.7 806.86 459.7 799.86 447.56 799.85 447.56"/>
            <polyline class="cls-7" points="869.93 544.66 862.92 532.53 862.92 532.52 855.91 520.39 848.91 508.25 848.9 508.25 841.9 496.11 834.89 483.97 827.89 471.84 827.88 471.84 827.88 471.83 820.88 459.7 820.88 459.7 820.88 459.7 813.87 447.56"/>
            <polyline class="cls-7" points="876.94 532.52 876.94 532.52 869.93 520.39 862.92 508.25 855.91 496.11 848.91 483.98 848.91 483.97 848.9 483.97 841.9 471.84 841.9 471.83 834.89 459.7 827.88 447.56"/>
            <polyline class="cls-7" points="883.95 520.39 883.94 520.39 876.94 508.25 876.94 508.25 869.93 496.11 862.92 483.97 855.92 471.84 855.91 471.84 848.91 459.7 848.9 459.7 841.9 447.56"/>
            <polyline class="cls-7" points="855.92 447.56 855.92 447.56 862.93 459.7 862.93 459.7 869.93 471.83 869.94 471.84 876.94 483.97 883.95 496.11 890.95 508.24 890.95 508.25 890.96 508.25"/>
            <polyline class="cls-7" points="869.93 544.66 855.92 544.66 841.9 544.66 841.9 544.66 827.88 544.66 813.87 544.66 813.87 544.66 799.86 544.66 799.85 544.66 785.84 544.66 785.84 544.66 771.83 544.66 771.82 544.66"/>
            <polyline class="cls-7" points="876.94 532.52 876.93 532.52 862.93 532.52 862.92 532.52 848.91 532.52 848.9 532.52 834.89 532.52 820.88 532.52 806.86 532.52 806.86 532.52 792.85 532.52 792.85 532.52 778.83 532.52 778.83 532.52 764.82 532.52"/>
            <polyline class="cls-7" points="883.95 520.39 883.94 520.39 869.94 520.39 869.93 520.39 855.91 520.39 841.9 520.39 827.88 520.39 813.87 520.39 799.85 520.39 785.84 520.39 785.84 520.39 771.83 520.39 757.81 520.39"/>
            <polyline class="cls-7" points="890.96 508.25 890.95 508.25 876.94 508.25 862.92 508.25 848.91 508.25 848.9 508.25 834.89 508.25 820.88 508.25 820.88 508.25 806.86 508.25 792.85 508.25 778.83 508.25 764.82 508.25 750.81 508.25 750.8 508.25"/>
            <polyline class="cls-7" points="883.95 496.11 869.93 496.11 855.91 496.11 841.9 496.11 827.88 496.11 813.87 496.11 813.87 496.11 799.85 496.11 785.84 496.11 785.84 496.11 771.83 496.11 771.82 496.11 757.81 496.11 757.81 496.11"/>
            <polyline class="cls-7" points="764.82 483.97 778.83 483.97 792.85 483.97 792.85 483.97 806.86 483.97 806.86 483.97 820.88 483.97 834.89 483.97 848.9 483.97 848.91 483.97 862.92 483.97 876.94 483.97"/>
            <polyline class="cls-7" points="771.83 471.84 785.84 471.84 785.84 471.84 799.85 471.84 813.87 471.84 813.87 471.84 827.88 471.84 827.89 471.84 841.9 471.84 841.9 471.84 855.91 471.84 855.92 471.84 869.92 471.84 869.94 471.84"/>
            <polyline class="cls-7" points="778.83 459.7 778.83 459.7 792.85 459.7 806.86 459.7 820.88 459.7 820.88 459.7 834.89 459.7 848.9 459.7 848.91 459.7 862.92 459.7 862.93 459.7"/>
            <polyline class="cls-7" points="855.92 447.56 855.91 447.56 841.9 447.56 827.88 447.56 813.87 447.56 799.86 447.56 799.85 447.56 785.84 447.56"/>
            <polyline class="cls-7" points="855.91 568.94 855.91 568.93 862.92 556.8 862.92 556.79 869.93 544.66 876.93 532.52 876.94 532.52 876.94 532.52 883.94 520.39 883.95 520.39 890.95 508.25 890.95 508.24"/>
            <polyline class="cls-7" points="883.95 496.11 876.94 508.25 876.94 508.25 869.94 520.39 869.93 520.39 862.93 532.52 862.92 532.52 862.92 532.53 855.92 544.66 848.91 556.8 841.9 568.94"/>
            <polyline class="cls-7" points="827.88 568.94 834.89 556.8 841.9 544.66 841.9 544.66 848.9 532.52 848.91 532.52 848.91 532.52 855.91 520.39 862.92 508.25 869.93 496.11 876.94 483.97"/>
            <polyline class="cls-7" points="813.87 568.94 813.87 568.93 820.88 556.8 827.88 544.66 834.89 532.52 841.9 520.39 841.9 520.38 848.9 508.25 848.91 508.25 855.91 496.11 862.92 483.97 869.92 471.84 869.93 471.83"/>
            <polyline class="cls-7" points="799.85 568.94 799.85 568.93 806.86 556.8 806.86 556.79 813.87 544.66 813.87 544.66 820.88 532.52 827.88 520.39 834.89 508.25 841.9 496.11 848.91 483.98 848.91 483.97 855.91 471.84 855.92 471.84 862.92 459.7 862.93 459.7 862.93 459.7"/>
            <polyline class="cls-7" points="785.84 568.94 785.84 568.94 792.85 556.8 792.85 556.8 792.85 556.79 799.85 544.66 806.86 532.52 813.87 520.39 820.88 508.25 820.88 508.25 827.88 496.11 834.89 483.97 841.9 471.84 841.9 471.84 841.9 471.83 848.9 459.7 848.91 459.7 855.91 447.56 855.92 447.56 855.92 447.56"/>
            <polyline class="cls-7" points="778.83 556.8 778.83 556.79 785.84 544.66 785.84 544.66 785.84 544.66 792.85 532.52 792.85 532.52 799.85 520.39 806.86 508.25 813.87 496.11 813.87 496.11 820.88 483.97 827.88 471.84 827.88 471.83 834.89 459.7 841.9 447.56"/>
            <polyline class="cls-7" points="771.82 544.66 771.83 544.66 778.83 532.52 778.83 532.52 778.83 532.52 785.84 520.39 785.84 520.38 792.85 508.25 799.85 496.11 806.86 483.97 813.87 471.84 813.87 471.84 813.87 471.83 820.88 459.7 820.88 459.7 827.88 447.56"/>
            <polyline class="cls-7" points="813.87 447.56 806.86 459.7 806.86 459.7 799.85 471.84 792.85 483.97 792.85 483.97 792.85 483.98 785.84 496.11 785.84 496.11 785.84 496.12 778.83 508.25 771.83 520.39 764.82 532.52"/>
            <polyline class="cls-7" points="799.85 447.56 799.85 447.56 792.85 459.7 792.85 459.7 785.84 471.83 785.84 471.84 778.83 483.97 771.83 496.11 771.82 496.11 764.82 508.24 764.82 508.25 757.81 520.39"/>
            <polyline class="cls-7" points="750.8 508.25 750.81 508.25 757.81 496.11 757.81 496.11 764.82 483.97 771.83 471.84 778.83 459.7 778.83 459.7 785.84 447.56"/>
          </g>
          <path class="cls-8" d="m852.76,447.57h-63.76c-1.95,0-3.76,1.04-4.73,2.73l-31.88,55.22c-.98,1.69-.98,3.77,0,5.46l31.88,55.22c.98,1.69,2.78,2.73,4.73,2.73h63.76c1.95,0,3.76-1.04,4.73-2.73l31.88-55.22c.98-1.69.98-3.77,0-5.46l-31.88-55.22c-.98-1.69-2.78-2.73-4.73-2.73Z"/>
        </g>
        <path class="cls-6" d="m852.76,447.57h-63.76c-1.95,0-3.76,1.04-4.73,2.73l-31.88,55.22c-.98,1.69-.98,3.77,0,5.46l31.88,55.22c.98,1.69,2.78,2.73,4.73,2.73h63.76c1.95,0,3.76-1.04,4.73-2.73l31.88-55.22c.98-1.69.98-3.77,0-5.46l-31.88-55.22c-.98-1.69-2.78-2.73-4.73-2.73Z"/>
      </g>
      <g>
        <polygon class="cls-1" points="533.98 372.05 512.71 408.91 427.58 408.91 406.29 372.05 427.58 335.19 448.86 372.03 448.86 372.05 491.41 372.05 470.14 335.19 512.69 335.19 533.98 372.05"/>
        <polygon class="cls-1" points="422.03 335.19 400.77 372.05 379.48 408.91 379.47 408.91 358.2 372.05 336.91 408.89 315.65 372.05 315.63 372.05 315.63 372.03 294.36 335.19 273.08 298.33 251.8 261.47 294.35 261.47 315.63 298.33 315.63 298.34 336.91 335.19 358.2 298.33 379.48 335.19 400.75 298.33 400.77 298.33 422.03 335.19"/>
        <polygon class="cls-1" points="448.86 298.33 470.13 335.19 427.58 335.19 406.29 298.33 427.58 261.47 512.69 261.47 533.98 298.33 448.86 298.33"/>
      </g>
      <text class="cls-4" transform="translate(265.64 568.02)"><tspan x="0" y="0">小三角形邊長為X</tspan></text>
      <g>
        <polygon class="cls-11" points="947.75 244.11 947.75 244.12 937.18 262.43 937.18 262.45 916.03 262.45 926.6 280.77 916.03 299.09 894.86 299.09 884.28 280.77 905.45 280.77 905.45 280.75 894.88 262.45 894.86 262.45 894.86 262.43 905.43 244.12 905.45 244.11 947.75 244.11"/>
        <polygon class="cls-1" points="899.63 244.11 899.63 244.12 889.07 262.43 889.05 262.43 889.05 262.45 878.48 280.77 867.9 299.09 825.58 299.09 825.58 299.07 815 280.77 814.98 280.77 814.98 280.75 825.56 262.45 825.58 262.43 836.15 244.11 857.31 244.11 846.73 262.43 836.15 280.77 857.31 280.77 857.31 280.75 867.88 262.45 867.9 262.43 878.48 244.11 899.63 244.11"/>
        <polygon class="cls-1" points="826.59 244.11 826.59 244.12 816.33 261.91 795.75 261.91 795.75 261.92 785.47 279.71 785.47 279.72 775.2 297.52 754.65 297.52 754.65 297.51 764.91 279.72 764.92 279.72 775.2 261.91 754.65 261.91 764.92 244.11 826.59 244.11"/>
        <polygon class="cls-1" points="1017.33 244.11 1017.33 244.12 1007.07 261.91 986.49 261.91 986.49 261.92 976.21 279.71 976.21 279.72 965.94 297.52 945.39 297.52 945.39 297.51 955.65 279.72 955.66 279.72 965.94 261.91 945.39 261.91 955.66 244.11 1017.33 244.11"/>
        <polygon class="cls-1" points="757.59 244.11 747.32 261.89 747.32 261.91 737.04 279.71 726.77 297.51 706.2 297.51 695.93 279.71 685.65 297.51 665.09 297.51 675.36 279.71 675.38 279.71 675.38 279.69 685.64 261.91 685.65 261.91 695.91 244.11 716.48 244.11 706.2 261.89 706.2 261.91 706.22 261.91 716.5 279.71 726.77 261.91 737.04 244.11 757.59 244.11"/>
      </g>
      <g>
        <polygon class="cls-11" points="859.52 512.29 859.52 512.3 852.66 524.18 852.66 524.19 838.94 524.19 845.8 536.08 838.94 547.97 825.2 547.97 818.34 536.08 832.07 536.08 832.07 536.07 825.21 524.19 825.2 524.19 825.2 524.18 832.06 512.3 832.07 512.29 859.52 512.29"/>
        <polygon class="cls-1" points="739.26 512.29 739.26 512.3 732.4 524.18 732.4 524.19 725.54 536.08 732.4 547.97 718.67 547.97 711.81 536.08 718.67 524.19 725.54 512.3 725.54 512.29 739.26 512.29"/>
        <polygon class="cls-1" points="779.22 523.92 772.51 535.55 785.93 535.55 779.22 547.17 752.38 547.17 759.09 535.55 765.8 523.92 772.51 512.3 772.51 512.29 785.93 512.29 785.93 512.3 779.22 523.91 779.22 523.92"/>
        <polygon class="cls-1" points="809.84 523.92 803.13 535.55 816.55 535.55 809.84 547.17 783 547.17 789.71 535.55 796.42 523.92 803.13 512.3 803.13 512.29 816.55 512.29 816.55 512.3 809.84 523.91 809.84 523.92"/>
        <polygon class="cls-1" points="768.37 512.29 761.66 523.91 754.95 535.54 754.94 535.54 754.94 535.55 748.24 547.16 734.81 547.16 748.23 523.91 754.94 512.29 768.37 512.29"/>
        <polygon class="cls-1" points="834.61 495.05 827.75 506.94 814.01 506.94 807.15 495.05 807.15 495.04 814 483.17 814.01 483.15 807.15 471.28 820.88 471.28 827.75 483.15 827.75 483.17 827.73 483.17 820.87 495.05 834.61 495.05"/>
        <path class="cls-1" d="m771.46,471.28h-27.47l-6.85,11.88h0s13.72,23.79,13.72,23.79h13.74l6.86-11.89,6.86-11.89-6.86-11.89Zm-13.72,23.78h-.01l-6.86-11.89h13.74l-6.86,11.89Z"/>
        <polygon class="cls-1" points="739.59 471.28 732.74 483.15 732.74 483.17 732.73 483.17 725.86 495.05 719 506.94 712.14 495.05 705.28 506.94 705.27 506.94 698.4 495.07 698.41 495.05 698.4 495.05 691.54 483.17 684.68 471.28 698.41 471.28 705.28 483.17 712.14 471.28 719 483.17 725.86 471.28 739.59 471.28"/>
        <polygon class="cls-1" points="810 483.17 803.13 495.05 810 506.94 796.27 506.94 789.41 495.05 796.27 483.17 782.55 483.17 782.54 483.15 775.69 471.28 803.15 471.28 810 483.15 810 483.17"/>
        <polygon class="cls-1" points="872.74 483.17 872.74 483.18 865.88 495.05 865.88 495.07 859.02 506.95 831.56 506.95 838.42 495.07 852.16 495.07 859.02 483.17 845.28 483.17 838.42 471.29 838.43 471.28 865.88 471.28 872.74 483.17"/>
        <polygon class="cls-11" points="721.89 512.29 721.89 512.3 715.03 524.18 715.03 524.19 701.31 524.19 708.17 536.08 701.31 547.97 687.57 547.97 680.71 536.08 694.44 536.08 694.44 536.07 687.58 524.19 687.57 524.19 687.57 524.18 694.43 512.3 694.44 512.29 721.89 512.29"/>
      </g>
      <g>
        <line class="cls-6" x1="579.15" y1="494.85" x2="640.42" y2="494.85"/>
        <polyline class="cls-6" points="628.12 494.85 640.42 494.85 634.27 484.2"/>
      </g>
      <text class="cls-2" transform="translate(570.72 487.92)"><tspan x="0" y="0">0.33倍</tspan></text>
      <g>
        <line class="cls-6" x1="583.36" y1="214.67" x2="644.64" y2="214.67"/>
        <polyline class="cls-6" points="632.34 214.67 644.64 214.67 638.49 204.01"/>
      </g>
      <text class="cls-2" transform="translate(574.93 207.74)"><tspan x="0" y="0">0</tspan><tspan class="cls-13" x="11.04" y="0">.</tspan><tspan x="15.43" y="0">75倍</tspan></text>
    </g>
    <text class="cls-5" transform="translate(528 73.88)"><tspan x="0" y="0">圖標設計</tspan></text>
  </g>
</svg>