<?xml version="1.0" encoding="UTF-8"?>
<svg id="_圖層_2" data-name="圖層 2" xmlns="http://www.w3.org/2000/svg" xmlns:xlink="http://www.w3.org/1999/xlink" viewBox="0 0 1200 675">
  <defs>
    <style>
      .cls-1, .cls-2, .cls-3 {
        fill: #fff;
      }

      .cls-4, .cls-5 {
        fill: #bfbfbf;
      }

      .cls-2, .cls-5 {
        font-size: 34.93px;
      }

      .cls-2, .cls-5, .cls-3 {
        font-family: jf-openhuninn-2.0, jf-openhuninn-2.0;
      }

      .cls-6 {
        filter: url(#drop-shadow-1);
      }

      .cls-7 {
        fill: gray;
      }

      .cls-8 {
        fill: #25a0cc;
      }

      .cls-3 {
        font-size: 36px;
      }

      .cls-9 {
        fill: #404040;
      }

      .cls-10 {
        fill: none;
        stroke: #fff;
        stroke-linejoin: round;
      }
    </style>
    <filter id="drop-shadow-1" filterUnits="userSpaceOnUse">
      <feOffset dx="2" dy="2"/>
      <feGaussianBlur result="blur" stdDeviation="2"/>
      <feFlood flood-color="#000" flood-opacity=".75"/>
      <feComposite in2="blur" operator="in"/>
      <feComposite in="SourceGraphic"/>
    </filter>
  </defs>
  <g id="_圖層_2-2" data-name="圖層 2">
    <rect class="cls-9" x="262.5" y="-262.5" width="675" height="1200" transform="translate(937.5 -262.5) rotate(90)"/>
    <g>
      <path d="m259.94,522.92V163.51c0-5.36,4.34-9.7,9.7-9.7h126.32v378.81h-126.32c-5.36,0-9.7-4.34-9.7-9.7Z"/>
      <rect class="cls-9" x="395.97" y="153.81" width="136.02" height="378.81"/>
      <rect class="cls-7" x="531.99" y="153.81" width="136.02" height="378.81"/>
      <rect class="cls-4" x="668.01" y="153.81" width="136.02" height="378.81"/>
      <path class="cls-1" d="m804.03,532.62V153.81h126.32c5.36,0,9.7,4.34,9.7,9.7v359.41c0,5.36-4.34,9.7-9.7,9.7h-126.32Z"/>
      <text class="cls-2" transform="translate(281.94 520.35)"><tspan x="0" y="0">100%</tspan></text>
      <text class="cls-2" transform="translate(428.68 520.35)"><tspan x="0" y="0">80%</tspan></text>
      <text class="cls-2" transform="translate(564.7 521)"><tspan x="0" y="0">60%</tspan></text>
      <text class="cls-2" transform="translate(700.72 521.65)"><tspan x="0" y="0">40%</tspan></text>
      <text class="cls-5" transform="translate(847.45 520.35)"><tspan x="0" y="0">0%</tspan></text>
      <g class="cls-6">
        <polygon class="cls-8" points="827.55 390.89 827.55 390.9 819.69 404.5 819.69 404.52 803.98 404.52 811.83 418.13 803.98 431.74 788.25 431.74 780.39 418.13 796.12 418.13 796.12 418.11 788.26 404.52 788.25 404.52 788.25 404.5 796.11 390.9 796.12 390.89 827.55 390.89"/>
        <polygon class="cls-1" points="791.79 390.89 791.79 390.9 783.95 404.5 783.94 404.5 783.94 404.52 776.08 418.13 768.22 431.74 736.78 431.74 736.78 431.73 728.92 418.13 728.91 418.13 728.91 418.11 736.76 404.52 736.78 404.5 744.64 390.89 760.35 390.89 752.49 404.5 744.64 418.13 760.35 418.13 760.35 418.11 768.21 404.52 768.22 404.5 776.08 390.89 791.79 390.89"/>
        <polygon class="cls-1" points="737.53 390.89 737.53 390.9 729.91 404.11 714.61 404.11 714.61 404.13 706.98 417.34 706.98 417.35 699.35 430.57 684.08 430.57 684.08 430.56 691.7 417.35 691.71 417.35 699.35 404.11 684.08 404.11 691.71 390.89 737.53 390.89"/>
        <polygon class="cls-1" points="879.24 390.89 879.24 390.9 871.62 404.11 856.33 404.11 856.33 404.13 848.69 417.34 848.69 417.35 841.06 430.57 825.79 430.57 825.79 430.56 833.41 417.35 833.43 417.35 841.06 404.11 825.79 404.11 833.43 390.89 879.24 390.89"/>
        <polygon class="cls-1" points="686.27 390.89 678.64 404.1 678.64 404.11 671 417.34 663.37 430.56 648.09 430.56 640.46 417.34 632.82 430.56 617.54 430.56 625.18 417.34 625.19 417.34 625.19 417.32 632.81 404.11 632.82 404.11 640.44 390.89 655.72 390.89 648.09 404.1 648.09 404.11 648.1 404.11 655.74 417.34 663.37 404.11 671 390.89 686.27 390.89"/>
        <g>
          <polygon class="cls-1" points="551.6 337.65 554.8 343.21 510.12 343.21 503.69 332.07 481.36 293.38 503.69 254.69 605.92 254.69 631.47 298.94 529.25 298.94 529.25 298.96 551.6 337.65"/>
          <polygon class="cls-1" points="631.47 387.49 605.92 431.74 503.69 431.74 481.34 393.05 506.89 348.78 506.91 348.78 529.25 387.49 580.36 387.49 558.01 348.78 554.8 343.21 605.92 343.21 631.47 387.49"/>
          <polygon class="cls-1" points="500.65 343.21 497.44 348.78 497.42 348.78 475.09 387.49 471.87 393.05 449.53 431.74 423.98 387.49 398.42 431.74 372.86 387.49 372.86 387.47 347.31 343.21 321.75 298.94 296.19 254.69 347.31 254.69 372.86 298.94 372.86 298.96 398.42 343.21 423.98 298.94 449.53 343.21 471.87 304.51 475.09 298.94 497.42 337.63 497.42 337.65 500.65 343.21"/>
        </g>
        <polygon class="cls-8" points="895.2 357.32 895.2 357.33 890.11 366.16 890.11 366.16 879.91 366.16 885.01 375 879.91 383.83 869.71 383.83 864.61 375 874.81 375 874.81 374.99 869.71 366.16 869.71 366.16 869.71 366.16 874.8 357.33 874.81 357.32 895.2 357.32"/>
        <polygon class="cls-1" points="805.86 357.32 805.86 357.33 800.76 366.16 800.76 366.16 795.66 375 800.76 383.83 790.56 383.83 785.46 375 790.56 366.16 795.66 357.33 795.66 357.32 805.86 357.32"/>
        <polygon class="cls-1" points="835.54 365.97 830.56 374.6 840.53 374.6 835.54 383.24 815.61 383.24 820.59 374.6 825.57 365.97 830.56 357.33 830.56 357.32 840.53 357.32 840.53 357.33 835.54 365.96 835.54 365.97"/>
        <polygon class="cls-1" points="858.3 365.97 853.31 374.6 863.28 374.6 858.3 383.24 838.36 383.24 843.34 374.6 848.33 365.97 853.31 357.33 853.31 357.32 863.28 357.32 863.28 357.33 858.3 365.96 858.3 365.97"/>
        <polygon class="cls-1" points="827.48 357.32 822.5 365.96 817.51 374.59 817.5 374.59 817.5 374.6 812.53 383.23 802.55 383.23 812.52 365.96 817.5 357.32 827.48 357.32"/>
        <polygon class="cls-1" points="736.18 374.99 731.08 383.82 720.88 383.82 715.78 374.99 715.78 374.98 720.87 366.15 720.88 366.15 715.78 357.32 725.99 357.32 731.08 366.15 731.08 366.15 731.08 366.15 725.98 374.99 736.18 374.99"/>
        <path class="cls-1" d="m689.27,357.32h-20.41l-5.09,8.82h0s10.2,17.67,10.2,17.67h10.21l5.1-8.83,5.1-8.83-5.1-8.83Zm-10.2,17.66h0l-5.1-8.83h10.21l-5.1,8.83Z"/>
        <polygon class="cls-1" points="665.59 357.32 660.5 366.15 660.5 366.15 660.49 366.15 655.39 374.99 650.29 383.82 645.2 374.99 640.1 383.82 640.09 383.82 634.99 375 635 374.99 634.99 374.99 629.89 366.15 624.79 357.32 635 357.32 640.1 366.15 645.2 357.32 650.29 366.15 655.39 357.32 665.59 357.32"/>
        <polygon class="cls-1" points="717.9 366.15 712.8 374.99 717.9 383.82 707.7 383.82 702.6 374.99 707.7 366.15 697.51 366.15 697.5 366.15 692.41 357.32 712.81 357.32 717.9 366.15 717.9 366.15"/>
        <polygon class="cls-1" points="764.52 366.15 764.52 366.16 759.42 374.99 759.42 375 754.32 383.83 733.92 383.83 739.02 375 749.22 375 754.32 366.15 744.11 366.15 739.02 357.33 739.02 357.32 759.42 357.32 764.52 366.15"/>
        <polygon class="cls-8" points="792.95 357.32 792.95 357.33 787.86 366.15 787.86 366.16 777.66 366.16 782.76 375 777.66 383.83 767.45 383.83 762.36 375 772.56 375 772.56 374.99 767.46 366.16 767.45 366.16 767.45 366.15 772.55 357.33 772.56 357.32 792.95 357.32"/>
      </g>
      <path class="cls-10" d="m327.95,536.79v8.31c0,5.36,4.34,9.7,9.7,9.7h386.56c5.36,0,9.7-4.34,9.7-9.7v-8.31"/>
      <text class="cls-2" transform="translate(461.09 593.65)"><tspan x="0" y="0">推薦範圍</tspan></text>
    </g>
    <text class="cls-3" transform="translate(528 73.88)"><tspan x="0" y="0">灰階測試</tspan></text>
  </g>
</svg>