<?xml version="1.0" encoding="UTF-8"?>
<svg id="_圖層_2" data-name="圖層 2" xmlns="http://www.w3.org/2000/svg" viewBox="0 0 1200 675">
  <defs>
    <style>
      .cls-1, .cls-2, .cls-3 {
        fill: #fff;
      }

      .cls-4 {
        fill: #6ab2d6;
      }

      .cls-2 {
        font-size: 43.64px;
      }

      .cls-2, .cls-3 {
        font-family: jf-openhuninn-2.0, jf-openhuninn-2.0;
      }

      .cls-5 {
        fill: #25a0cc;
      }

      .cls-6 {
        fill: #dfecf6;
      }

      .cls-7 {
        fill: #96c5e1;
      }

      .cls-3 {
        font-size: 36px;
      }

      .cls-8 {
        fill: #bdd9eb;
      }

      .cls-9 {
        fill: #404040;
      }
    </style>
  </defs>
  <g id="_圖層_2-2" data-name="圖層 2">
    <rect class="cls-9" x="262.5" y="-262.5" width="675" height="1200" transform="translate(937.5 -262.5) rotate(90)"/>
    <g>
      <path class="cls-1" d="m868.34,197.73h256.22v272.12h-238.04c-10.04,0-18.18-8.15-18.18-18.18v-253.94h0Z" transform="translate(1992.9 667.59) rotate(180)"/>
      <path class="cls-5" d="m576.08,250.97h327.31c10.04,0,18.18,8.15,18.18,18.18v239.01h-363.68v-239.01c0-10.04,8.15-18.18,18.18-18.18Z" transform="translate(360.17 1119.31) rotate(-90)"/>
      <rect class="cls-4" x="854.71" y="483.48" width="91.55" height="64.3" transform="translate(1416.12 -384.85) rotate(90)"/>
      <rect class="cls-7" x="918.11" y="483.48" width="91.55" height="64.3" transform="translate(1479.52 -448.26) rotate(90)"/>
      <rect class="cls-8" x="982.41" y="483.48" width="91.55" height="64.3" transform="translate(1543.82 -512.55) rotate(90)"/>
      <path class="cls-6" d="m1046.71,483.48h73.37c10.04,0,18.18,8.15,18.18,18.18v46.12h-91.55v-64.3h0Z" transform="translate(1608.12 -576.85) rotate(90)"/>
      <rect class="cls-1" x="868.34" y="288.65" width="256.22" height="181.2" transform="translate(1992.9 758.51) rotate(180)"/>
      <text class="cls-2" transform="translate(639.84 541.46)"><tspan x="0" y="0">#25A1CD</tspan></text>
    </g>
    <text class="cls-3" transform="translate(805.48 153.24)"><tspan x="0" y="0">標準色</tspan></text>
    <text class="cls-3" transform="translate(217.81 110.28)"><tspan x="0" y="0">標號排列</tspan></text>
    <text class="cls-3" transform="translate(245.7 402.72)"><tspan x="0" y="0">橫式排列</tspan></text>
    <g>
      <polygon class="cls-5" points="474.23 533.71 474.23 533.71 468.93 542.9 468.93 542.9 458.32 542.9 463.62 552.09 458.32 561.28 447.7 561.28 442.4 552.09 453.01 552.09 453.01 552.09 447.71 542.9 447.7 542.9 447.7 542.9 453 533.71 453.01 533.71 474.23 533.71"/>
      <polygon class="cls-1" points="450.09 533.71 450.09 533.71 444.8 542.9 444.79 542.9 444.79 542.9 439.48 552.09 434.18 561.28 412.95 561.28 412.95 561.28 407.65 552.09 407.64 552.09 407.64 552.09 412.94 542.9 412.95 542.9 418.26 533.71 428.86 533.71 423.56 542.9 418.26 552.09 428.86 552.09 428.86 552.09 434.17 542.9 434.18 542.9 439.48 533.71 450.09 533.71"/>
      <polygon class="cls-1" points="413.46 533.71 413.46 533.71 408.31 542.63 397.99 542.63 397.99 542.64 392.83 551.56 392.83 551.57 387.68 560.5 377.37 560.5 377.37 560.49 382.52 551.57 382.53 551.57 387.68 542.63 377.37 542.63 382.53 533.71 413.46 533.71"/>
      <polygon class="cls-1" points="509.13 533.71 509.13 533.71 503.98 542.63 493.66 542.63 493.66 542.64 488.51 551.56 488.51 551.57 483.35 560.5 473.05 560.5 473.05 560.49 478.19 551.57 478.2 551.57 483.35 542.63 473.05 542.63 478.2 533.71 509.13 533.71"/>
      <polygon class="cls-1" points="378.85 533.71 373.7 542.62 373.7 542.63 368.54 551.56 363.39 560.49 353.07 560.49 347.92 551.56 342.77 560.49 332.45 560.49 337.61 551.56 337.61 551.56 337.61 551.55 342.76 542.63 342.77 542.63 347.91 533.71 358.23 533.71 353.07 542.62 353.07 542.63 353.08 542.63 358.24 551.56 363.39 542.63 368.54 533.71 378.85 533.71"/>
      <g>
        <polygon class="cls-1" points="287.93 497.76 290.09 501.52 259.93 501.52 255.59 493.99 240.51 467.87 255.59 441.75 324.6 441.75 341.86 471.63 272.84 471.63 272.84 471.64 287.93 497.76"/>
        <polygon class="cls-1" points="341.86 531.41 324.6 561.28 255.59 561.28 240.5 535.16 257.75 505.27 257.76 505.27 272.84 531.41 307.35 531.41 292.26 505.27 290.09 501.52 324.6 501.52 341.86 531.41"/>
        <polygon class="cls-1" points="253.53 501.52 251.37 505.27 251.36 505.27 236.28 531.41 234.1 535.16 219.02 561.28 201.77 531.41 184.52 561.28 167.26 531.41 167.26 531.4 150.01 501.52 132.75 471.63 115.5 441.75 150.01 441.75 167.26 471.63 167.26 471.64 184.52 501.52 201.77 471.63 219.02 501.52 234.1 475.39 236.28 471.63 251.36 497.75 251.36 497.76 253.53 501.52"/>
      </g>
      <polygon class="cls-5" points="519.91 511.04 519.91 511.05 516.47 517.01 516.47 517.01 509.58 517.01 513.03 522.98 509.58 528.94 502.69 528.94 499.25 522.98 506.14 522.98 506.14 522.97 502.7 517.01 502.69 517.01 502.69 517.01 506.14 511.05 506.14 511.04 519.91 511.04"/>
      <polygon class="cls-1" points="459.59 511.04 459.59 511.05 456.15 517.01 456.15 517.01 452.7 522.98 456.15 528.94 449.26 528.94 445.82 522.98 449.26 517.01 452.7 511.05 452.7 511.04 459.59 511.04"/>
      <polygon class="cls-1" points="479.63 516.88 476.27 522.71 483 522.71 479.63 528.54 466.17 528.54 469.53 522.71 472.9 516.88 476.27 511.05 476.27 511.04 483 511.04 483 511.05 479.63 516.87 479.63 516.88"/>
      <polygon class="cls-1" points="494.99 516.88 491.63 522.71 498.36 522.71 494.99 528.54 481.53 528.54 484.89 522.71 488.26 516.88 491.63 511.05 491.63 511.04 498.36 511.04 498.36 511.05 494.99 516.87 494.99 516.88"/>
      <polygon class="cls-1" points="474.19 511.04 470.82 516.87 467.46 522.7 467.45 522.7 467.45 522.71 464.09 528.53 457.35 528.53 464.09 516.87 467.45 511.04 474.19 511.04"/>
      <polygon class="cls-1" points="412.55 522.97 409.11 528.93 402.22 528.93 398.77 522.97 398.77 522.96 402.21 517.01 402.22 517 398.77 511.04 405.66 511.04 409.11 517 409.11 517.01 409.1 517.01 405.66 522.97 412.55 522.97"/>
      <path class="cls-1" d="m380.88,511.04h-13.78l-3.44,5.96h0s6.88,11.93,6.88,11.93h6.89l3.44-5.96,3.44-5.96-3.44-5.96Zm-6.88,11.93h0l-3.44-5.96h6.89l-3.44,5.96Z"/>
      <polygon class="cls-1" points="364.89 511.04 361.45 517 361.45 517.01 361.45 517.01 358 522.97 354.56 528.93 351.12 522.97 347.68 528.93 347.67 528.93 344.23 522.98 344.24 522.97 344.23 522.97 340.79 517.01 337.35 511.04 344.24 511.04 347.68 517.01 351.12 511.04 354.56 517.01 358 511.04 364.89 511.04"/>
      <polygon class="cls-1" points="400.2 517.01 396.76 522.97 400.2 528.93 393.32 528.93 389.88 522.97 393.32 517.01 386.44 517.01 386.43 517 382.99 511.04 396.77 511.04 400.2 517 400.2 517.01"/>
      <polygon class="cls-1" points="431.68 517.01 431.68 517.01 428.23 522.97 428.23 522.98 424.79 528.94 411.02 528.94 414.46 522.98 421.35 522.98 424.79 517.01 417.9 517.01 414.46 511.05 414.47 511.04 428.23 511.04 431.68 517.01"/>
      <polygon class="cls-5" points="450.88 511.04 450.88 511.05 447.43 517.01 447.43 517.01 440.55 517.01 443.99 522.98 440.55 528.94 433.66 528.94 430.22 522.98 437.11 522.98 437.11 522.97 433.67 517.01 433.66 517.01 433.66 517.01 437.1 511.05 437.11 511.04 450.88 511.04"/>
    </g>
    <g>
      <polygon class="cls-1" points="367.97 222.87 370.78 227.74 331.68 227.74 326.06 217.99 306.52 184.13 326.06 150.28 415.5 150.28 437.86 189 348.42 189 348.42 189.02 367.97 222.87"/>
      <polygon class="cls-1" points="437.86 266.48 415.5 305.19 326.06 305.19 306.5 271.34 328.86 232.61 328.88 232.61 348.42 266.48 393.14 266.48 373.58 232.61 370.78 227.74 415.5 227.74 437.86 266.48"/>
      <polygon class="cls-1" points="323.39 227.74 320.59 232.61 320.57 232.61 301.03 266.48 298.21 271.34 278.67 305.19 256.31 266.48 233.95 305.19 211.59 266.48 211.59 266.46 189.23 227.74 166.87 189 144.51 150.28 189.23 150.28 211.59 189 211.59 189.02 233.95 227.74 256.31 189 278.67 227.74 298.21 193.87 301.03 189 320.57 222.85 320.57 222.87 323.39 227.74"/>
    </g>
  </g>
</svg>