<?xml version="1.0" encoding="UTF-8"?>
<svg id="_圖層_2" data-name="圖層 2" xmlns="http://www.w3.org/2000/svg" viewBox="0 0 1200 675">
  <defs>
    <style>
      .cls-1 {
        fill: #fff;
      }

      .cls-2 {
        fill: #25a0cc;
      }

      .cls-3 {
        fill: #404040;
      }
    </style>
  </defs>
  <g id="_圖層_2-2" data-name="圖層 2">
    <rect class="cls-3" x="262.5" y="-262.5" width="675" height="1200" transform="translate(937.5 -262.5) rotate(90)"/>
    <g>
      <polygon class="cls-2" points="912.07 401.67 912.07 401.69 901.49 419.99 901.49 420.01 880.34 420.01 890.92 438.33 880.34 456.65 859.17 456.65 848.6 438.33 869.77 438.33 869.77 438.31 859.19 420.01 859.17 420.01 859.17 419.99 869.75 401.69 869.77 401.67 912.07 401.67"/>
      <polygon class="cls-1" points="863.94 401.67 863.94 401.69 853.38 419.99 853.37 419.99 853.37 420.01 842.79 438.33 832.21 456.65 789.89 456.65 789.89 456.64 779.32 438.33 779.3 438.33 779.3 438.31 789.87 420.01 789.89 419.99 800.47 401.67 821.62 401.67 811.04 419.99 800.47 438.33 821.62 438.33 821.62 438.31 832.2 420.01 832.21 419.99 842.79 401.67 863.94 401.67"/>
      <polygon class="cls-1" points="790.9 401.67 790.9 401.69 780.64 419.47 760.06 419.47 760.06 419.49 749.79 437.27 749.79 437.29 739.51 455.09 718.96 455.09 718.96 455.07 729.22 437.29 729.24 437.29 739.51 419.47 718.96 419.47 729.24 401.67 790.9 401.67"/>
      <polygon class="cls-1" points="981.64 401.67 981.64 401.69 971.39 419.47 950.8 419.47 950.8 419.49 940.53 437.27 940.53 437.29 930.25 455.09 909.7 455.09 909.7 455.07 919.96 437.29 919.98 437.29 930.25 419.47 909.7 419.47 919.98 401.67 981.64 401.67"/>
      <polygon class="cls-1" points="721.91 401.67 711.63 419.45 711.63 419.47 701.36 437.27 691.08 455.07 670.52 455.07 660.24 437.27 649.97 455.07 629.4 455.07 639.68 437.27 639.69 437.27 639.69 437.25 649.95 419.47 649.97 419.47 660.23 401.67 680.79 401.67 670.52 419.45 670.52 419.47 670.54 419.47 680.81 437.27 691.08 419.47 701.36 401.67 721.91 401.67"/>
      <g>
        <polygon class="cls-1" points="540.64 330.01 544.96 337.5 484.81 337.5 476.16 322.5 446.1 270.42 476.16 218.35 613.75 218.35 648.15 277.91 510.56 277.91 510.56 277.94 540.64 330.01"/>
        <polygon class="cls-1" points="648.15 397.09 613.75 456.65 476.16 456.65 446.07 404.58 480.47 344.99 480.5 344.99 510.56 397.09 579.36 397.09 549.27 344.99 544.96 337.5 613.75 337.5 648.15 397.09"/>
        <polygon class="cls-1" points="472.06 337.5 467.75 344.99 467.72 344.99 437.66 397.09 433.32 404.58 403.26 456.65 368.86 397.09 334.46 456.65 300.07 397.09 300.07 397.06 265.67 337.5 231.27 277.91 196.87 218.35 265.67 218.35 300.07 277.91 300.07 277.94 334.46 337.5 368.86 277.91 403.26 337.5 433.32 285.4 437.66 277.91 467.72 329.98 467.72 330.01 472.06 337.5"/>
      </g>
      <polygon class="cls-2" points="1003.13 356.49 1003.13 356.5 996.27 368.38 996.27 368.39 982.55 368.39 989.41 380.28 982.55 392.17 968.81 392.17 961.95 380.28 975.69 380.28 975.69 380.27 968.82 368.39 968.81 368.39 968.81 368.38 975.67 356.5 975.69 356.49 1003.13 356.49"/>
      <polygon class="cls-1" points="882.87 356.49 882.87 356.5 876.01 368.38 876.01 368.39 869.15 380.28 876.01 392.17 862.29 392.17 855.42 380.28 862.29 368.39 869.15 356.5 869.15 356.49 882.87 356.49"/>
      <polygon class="cls-1" points="922.83 368.12 916.12 379.75 929.54 379.75 922.83 391.37 895.99 391.37 902.7 379.75 909.41 368.12 916.12 356.5 916.12 356.49 929.54 356.49 929.54 356.5 922.83 368.11 922.83 368.12"/>
      <polygon class="cls-1" points="953.45 368.12 946.74 379.75 960.16 379.75 953.45 391.37 926.62 391.37 933.32 379.75 940.03 368.12 946.74 356.5 946.74 356.49 960.16 356.49 960.16 356.5 953.45 368.11 953.45 368.12"/>
      <polygon class="cls-1" points="911.98 356.49 905.27 368.11 898.56 379.74 898.55 379.74 898.55 379.75 891.85 391.36 878.42 391.36 891.84 368.11 898.55 356.49 911.98 356.49"/>
      <polygon class="cls-1" points="789.09 380.27 782.23 392.15 768.49 392.15 761.63 380.27 761.63 380.25 768.48 368.38 768.49 368.37 761.63 356.49 775.37 356.49 782.23 368.37 782.23 368.38 782.22 368.38 775.35 380.27 789.09 380.27"/>
      <path class="cls-1" d="m725.94,356.49h-27.47l-6.85,11.88h0s13.72,23.79,13.72,23.79h13.74l6.86-11.89,6.86-11.89-6.86-11.89Zm-13.72,23.78h-.01l-6.86-11.89h13.74l-6.86,11.89Z"/>
      <polygon class="cls-1" points="694.07 356.49 687.22 368.37 687.22 368.38 687.21 368.38 680.35 380.27 673.48 392.15 666.62 380.27 659.76 392.15 659.75 392.15 652.89 380.28 652.9 380.27 652.89 380.27 646.02 368.38 639.16 356.49 652.9 356.49 659.76 368.38 666.62 356.49 673.48 368.38 680.35 356.49 694.07 356.49"/>
      <polygon class="cls-1" points="764.48 368.38 757.62 380.27 764.48 392.15 750.76 392.15 743.89 380.27 750.76 368.38 737.03 368.38 737.02 368.37 730.17 356.49 757.63 356.49 764.48 368.37 764.48 368.38"/>
      <polygon class="cls-1" points="827.23 368.38 827.23 368.39 820.36 380.27 820.36 380.28 813.5 392.16 786.04 392.16 792.9 380.28 806.64 380.28 813.5 368.38 799.77 368.38 792.9 356.5 792.92 356.49 820.36 356.49 827.23 368.38"/>
      <polygon class="cls-2" points="865.5 356.49 865.5 356.5 858.64 368.38 858.64 368.39 844.92 368.39 851.78 380.28 844.92 392.17 831.18 392.17 824.32 380.28 838.06 380.28 838.06 380.27 831.19 368.39 831.18 368.39 831.18 368.38 838.04 356.5 838.06 356.49 865.5 356.49"/>
    </g>
  </g>
</svg>